<svg width="99" height="23" viewBox="0 0 99 23" fill="none" xmlns="http://www.w3.org/2000/svg">
<path d="M58.4144 7.38472V22.3333H54.0773V20.15C53.6053 20.9368 52.9857 21.5367 52.2186 21.9497C51.4515 22.3628 50.586 22.5693 49.6222 22.5693C47.7537 22.5693 46.3572 22.0481 45.4327 21.0056C44.5083 19.9631 44.046 18.3896 44.046 16.285V7.38472H48.5011V16.3735C48.5011 18.1831 49.278 19.0879 50.8319 19.0879C51.7563 19.0879 52.5038 18.7731 53.0742 18.1437C53.6446 17.5143 53.9298 16.6882 53.9298 15.6654V7.38472H58.4144ZM75.4086 0.569336V22.3333H71.0125V20.1205C70.5601 20.8876 69.9209 21.4875 69.0947 21.9202C68.2686 22.3529 67.3344 22.5693 66.2919 22.5693C65.0134 22.5693 63.8726 22.2448 62.8695 21.5858C61.8663 20.9269 61.0894 20.0025 60.5288 18.8125C59.9682 17.6225 59.6929 16.2653 59.6929 14.7311C59.6929 13.1969 59.9682 11.8496 60.5288 10.6793C61.0894 9.50899 61.8663 8.60421 62.8596 7.96496C63.8529 7.32571 64.9937 7.011 66.2919 7.011C67.295 7.011 68.2096 7.22736 69.0357 7.64042C69.8619 8.0633 70.5011 8.64355 70.9535 9.39098V0.569336H75.4086ZM70.1274 18.0454C70.7175 17.2881 71.0125 16.2063 71.0125 14.7901C71.0125 13.3936 70.7175 12.3216 70.1175 11.5644C69.5176 10.8071 68.6817 10.4334 67.5999 10.4334C66.4984 10.4334 65.6428 10.8071 65.0331 11.5545C64.4233 12.302 64.1184 13.3641 64.1184 14.741C64.1184 16.1571 64.4233 17.2488 65.0331 18.0257C65.6428 18.8026 66.4984 19.1862 67.5999 19.1862C68.7014 19.1764 69.5373 18.8026 70.1274 18.0454ZM92.4126 7.38472V22.3333H88.0165V20.1205C87.5641 20.8876 86.9249 21.4875 86.0988 21.9202C85.2727 22.3529 84.3384 22.5693 83.2959 22.5693C81.9977 22.5693 80.8569 22.2546 79.8636 21.6252C78.8703 20.9958 78.0934 20.1008 77.5328 18.9305C76.9723 17.7602 76.6969 16.4128 76.6969 14.8786C76.6969 13.3444 76.9723 11.9774 77.5328 10.7776C78.0934 9.57783 78.8703 8.65338 79.8735 7.99446C80.8766 7.33554 82.0174 7.011 83.2959 7.011C84.3384 7.011 85.2727 7.2372 86.0988 7.68959C86.9249 8.14198 87.5641 8.75173 88.0165 9.51883V7.38472H92.4126ZM87.1314 18.0552C87.7215 17.3078 88.0165 16.226 88.0165 14.8098C88.0165 13.3936 87.7215 12.3118 87.1314 11.5545C86.5413 10.7973 85.6956 10.4236 84.5941 10.4236C83.4926 10.4236 82.637 10.817 82.0272 11.6037C81.4175 12.3905 81.1126 13.4821 81.1126 14.8786C81.1126 16.2752 81.4077 17.3373 82.0076 18.0749C82.6075 18.8125 83.4631 19.1764 84.5842 19.1764C85.6956 19.1764 86.5413 18.8026 87.1314 18.0552ZM43.1511 22.5496H37.624L31.6839 15.7736V22.5496H27.1797V0.569336H31.6839V13.9149L37.3585 7.43389H42.7675L36.3455 14.6918L43.1511 22.5496Z" fill="#40196D"/>
<path d="M14.8207 22.5496L6.17613 12.597L10.8967 22.5496H7.62181L2.80286 12.4003L4.80912 22.5496H2.79303L0.786768 12.3807V22.5496H0V0.569336H0.786768V11.5349L2.82253 0.569336H4.82879L2.78319 11.5841L7.70049 0.569336H10.9361L6.04828 11.5447L14.9289 0.569336H20.0134L10.8181 11.9184L20.0527 22.5496H14.8207Z" fill="#40196D"/>
<path d="M96.146 22.314C97.493 22.314 98.585 21.222 98.585 19.875C98.585 18.528 97.493 17.436 96.146 17.436C94.799 17.436 93.707 18.528 93.707 19.875C93.707 21.222 94.799 22.314 96.146 22.314Z" fill="#40196D"/>
</svg>
